<?xml version="1.0" standalone="no"?>
<!DOCTYPE svg PUBLIC "-//W3C//DTD SVG 20010904//EN"
 "http://www.w3.org/TR/2001/REC-SVG-20010904/DTD/svg10.dtd">
<svg version="1.0" xmlns="http://www.w3.org/2000/svg"
 width="256.000000pt" height="256.000000pt" viewBox="0 0 256.000000 256.000000"
 preserveAspectRatio="xMidYMid meet">

<g transform="translate(0.000000,256.000000) scale(0.100000,-0.100000)"
fill="#000000" stroke="none">
<path d="M300 2133 c-39 -27 -49 -45 -50 -90 0 -33 6 -50 29 -75 l29 -33 944
-3 c650 -2 954 0 980 8 49 14 78 52 78 102 0 32 -7 47 -34 74 l-34 34 -959 0
c-887 0 -960 -1 -983 -17z"/>
<path d="M1395 1811 c-195 -56 -354 -221 -400 -412 -74 -316 123 -627 440
-694 39 -8 90 -15 115 -15 59 0 168 24 224 48 l43 20 164 -164 c90 -90 176
-168 191 -175 80 -33 165 43 143 129 -4 16 -68 89 -167 189 l-160 161 25 34
c39 52 67 113 88 195 50 196 -4 385 -151 533 -120 121 -239 171 -406 169 -52
0 -114 -8 -149 -18z m266 -167 c104 -30 194 -105 243 -202 118 -233 -15 -511
-272 -568 -180 -40 -356 46 -439 214 -37 73 -38 80 -37 177 0 86 4 108 26 157
47 101 148 191 251 223 58 19 163 18 228 -1z"/>
<path d="M281 1611 c-26 -24 -31 -37 -31 -74 0 -55 27 -92 78 -107 47 -13 326
-13 373 0 54 15 84 53 84 107 0 38 -5 49 -33 74 l-32 29 -204 0 -204 0 -31
-29z"/>
<path d="M279 1101 c-24 -24 -29 -38 -29 -76 0 -40 5 -52 31 -76 l31 -29 204
0 204 0 32 29 c28 25 33 36 33 76 0 40 -5 51 -33 76 l-32 29 -206 0 -206 0
-29 -29z"/>
<path d="M303 610 c-40 -24 -53 -48 -53 -97 1 -41 11 -59 50 -86 22 -15 66
-17 458 -17 475 0 476 0 507 60 19 37 19 54 -1 95 -30 64 -35 65 -506 65 -401
0 -425 -1 -455 -20z"/>
</g>
</svg>
